<?xml version="1.0" encoding="utf-8"?>
<!-- Generator: Adobe Illustrator 25.0.0, SVG Export Plug-In . SVG Version: 6.00 Build 0)  -->
<svg version="1.1" id="Livello_1" xmlns="http://www.w3.org/2000/svg" xmlns:xlink="http://www.w3.org/1999/xlink" x="0px" y="0px"
	 viewBox="0 0 2000 2000" style="enable-background:new 0 0 2000 2000;" xml:space="preserve">
<style type="text/css">
	.st0{fill:#080842;}
	.st1{fill:url(#SVGID_1_);}
	.st2{fill:url(#SVGID_2_);}
	.st3{fill:url(#SVGID_3_);}
	.st4{fill:url(#SVGID_4_);}
</style>
<rect class="st0" width="2000" height="2000"/>
<g>
	
		<image style="overflow:visible;" width="4760" height="5393" xlink:href="9BD3A566.png"  transform="matrix(0.24 0 0 0.24 428.88 352.8)">
	</image>
	<g>
		<g>
			<linearGradient id="SVGID_1_" gradientUnits="userSpaceOnUse" x1="644.3375" y1="1455.8539" x2="1229.7723" y2="557.6304">
				<stop  offset="0" style="stop-color:#230B0C"/>
				<stop  offset="0.4675" style="stop-color:#7F1F1A"/>
				<stop  offset="1" style="stop-color:#E4342A"/>
			</linearGradient>
			<path class="st1" d="M854.8,502.9h193c91.1,0,199.1,66.5,239.2,148.3c39.6,80.8,43.7,161.1,22.6,230.6
				c-6,19.7-13.4,36.8-21.1,51.3c11.9,5.2,23.2,11.8,33.7,19.8c4,3,7.8,6.2,11.5,9.6c0.8,0.7,1.6,1.5,2.4,2.2
				c55.5,52.3,70.2,122.7,77,152c5.3,22.7,8.1,46.3,8.1,70.5c0,171.1-138.7,309.8-309.8,309.8c-5.4,0-10.8-0.1-16.1-0.4v0.4H881
				c-2.6,0-5.2-0.1-7.8-0.4v0.4H658.9c-43.9,0-79.4-35.6-79.4-79.4v-369.2c0-44.3-0.4-37.3,0-157.3v-94.5c0-0.6-1-123.6-0.3-162.7
				v-77.5c0-29.6,24-53.5,53.5-53.5H854.8"/>
			<linearGradient id="SVGID_2_" gradientUnits="userSpaceOnUse" x1="301.9221" y1="551.7535" x2="1525.5261" y2="1775.3575">
				<stop  offset="0.1568" style="stop-color:#F7B032"/>
				<stop  offset="0.3072" style="stop-color:#F5A630"/>
				<stop  offset="0.5654" style="stop-color:#F18A29"/>
				<stop  offset="0.8985" style="stop-color:#E95E1F"/>
				<stop  offset="0.9971" style="stop-color:#E74F1C"/>
			</linearGradient>
			<path class="st2" d="M1221.5,918.7c36.3,0.5,71.7,12.2,100.6,34.2c4,3,7.8,6.2,11.5,9.6c0.8,0.7,1.6,1.5,2.4,2.2
				c55.5,52.3,70.2,122.7,77,152c5.3,22.7,8.1,46.3,8.1,70.5c0,171.1-138.7,309.8-309.8,309.8c-5.4,0-10,0-16.1,0l0,0H881
				c-2.6,0,0,0-7.8,0l0,0H658.9c-43.9,0-79.4-35.6-79.4-79.4v-369.2c0-44.3-0.4-37.3,0-157.3v-94.5c0-0.6-1-123.6-0.3-162.7
				c8.1,41.5,29.5,117,93.7,174.3c46.7,41.7,98.4,58.2,191.1,75.5C951,900,1072.2,916.7,1221.5,918.7z"/>
		</g>
	</g>
</g>
<g>
	<linearGradient id="SVGID_3_" gradientUnits="userSpaceOnUse" x1="644.3375" y1="1455.8539" x2="1229.7723" y2="557.6304">
		<stop  offset="0" style="stop-color:#230B0C"/>
		<stop  offset="0.4675" style="stop-color:#7F1F1A"/>
		<stop  offset="1" style="stop-color:#E4342A"/>
	</linearGradient>
	<path class="st3" d="M854.8,502.9h193c91.1,0,199.1,66.5,239.2,148.3c39.6,80.8,43.7,161.1,22.6,230.6c-6,19.7-13.4,36.8-21.1,51.3
		c11.9,5.2,23.2,11.8,33.7,19.8c4,3,7.8,6.2,11.5,9.6c0.8,0.7,1.6,1.5,2.4,2.2c55.5,52.3,70.2,122.7,77,152
		c5.3,22.7,8.1,46.3,8.1,70.5c0,171.1-138.7,309.8-309.8,309.8c-5.4,0-10.8-0.1-16.1-0.4v0.4H881c-2.6,0-5.2-0.1-7.8-0.4v0.4H658.9
		c-43.9,0-79.4-35.6-79.4-79.4v-369.2c0-44.3-0.4-37.3,0-157.3v-94.5c0-0.6-1-123.6-0.3-162.7v-77.5c0-29.6,24-53.5,53.5-53.5H854.8
		"/>
	<linearGradient id="SVGID_4_" gradientUnits="userSpaceOnUse" x1="301.9221" y1="551.7535" x2="1525.5261" y2="1775.3575">
		<stop  offset="0.1568" style="stop-color:#F7B032"/>
		<stop  offset="0.3072" style="stop-color:#F5A630"/>
		<stop  offset="0.5654" style="stop-color:#F18A29"/>
		<stop  offset="0.8985" style="stop-color:#E95E1F"/>
		<stop  offset="0.9971" style="stop-color:#E74F1C"/>
	</linearGradient>
	<path class="st4" d="M1221.5,918.7c36.3,0.5,71.7,12.2,100.6,34.2c4,3,7.8,6.2,11.5,9.6c0.8,0.7,1.6,1.5,2.4,2.2
		c55.5,52.3,70.2,122.7,77,152c5.3,22.7,8.1,46.3,8.1,70.5c0,171.1-138.7,309.8-309.8,309.8c-5.4,0-10,0-16.1,0l0,0H881
		c-2.6,0,0,0-7.8,0l0,0H658.9c-43.9,0-79.4-35.6-79.4-79.4v-369.2c0-44.3-0.4-37.3,0-157.3v-94.5c0-0.6-1-123.6-0.3-162.7
		c8.1,41.5,29.5,117,93.7,174.3c46.7,41.7,98.4,58.2,191.1,75.5C951,900,1072.2,916.7,1221.5,918.7z"/>
</g>
</svg>
