<?xml version="1.0" encoding="UTF-8"?>
<svg width="64px" height="100px" viewBox="0 0 64 100" version="1.1" xmlns="http://www.w3.org/2000/svg" xmlns:xlink="http://www.w3.org/1999/xlink">
    <!-- Generator: Sketch 52.6 (67491) - http://www.bohemiancoding.com/sketch -->
    <title>ICON</title>
    <desc>Created with Sketch.</desc>
    <defs>
        <polygon id="path-1" points="0.509401413 0.825956471 62.3794821 0.825956471 62.3794821 31.3224828 0.509401413 31.3224828"></polygon>
    </defs>
    <g id="Home" stroke="none" stroke-width="1" fill="none" fill-rule="evenodd">
        <g id="Scroll-@-1080px" transform="translate(-928.000000, -4259.000000)">
            <g id="Group-26" transform="translate(259.259615, 4257.333333)">
                <g id="Group-14" transform="translate(0.000000, 0.647238)">
                    <g id="TITLE-Copy-2" transform="translate(274.740385, 0.000000)">
                        <g id="Group-31">
                            <g id="ICON" transform="translate(393.759615, 0.352762)">
                                <g id="Group-64" transform="translate(0.779412, 0.779412)">
                                    <g id="Group-3" transform="translate(0.000000, 71.635388)">
                                        <mask id="mask-2" fill="white">
                                            <use xlink:href="#path-1"></use>
                                        </mask>
                                        <g id="Clip-2"></g>
                                    </g>
                                    <path d="M62.3810617,15.6796869 L62.3810617,81.8606128 C62.3810617,83.2683844 61.2223352,84.9902509 59.7843731,85.6984871 L34.0376144,98.3858327 C33.3181238,98.7356005 32.3795248,98.9139646 31.4409258,98.9139646 C30.5023268,98.9139646 29.5637278,98.7356005 28.8544283,98.3858327 L3.10665053,85.6984871 C1.66970746,84.9902509 0.509961923,83.2683844 0.509961923,81.8606128 L0.509961923,15.6796869 L62.3810617,15.6796869 Z" id="Fill-4" fill="#C8E2FF"></path>
                                    <path d="M31.4406201,15.6796869 L31.4406201,98.9139646 C30.5020211,98.9139646 29.5634221,98.7356005 28.8541226,98.3858327 L3.1063448,85.6984871 C1.66940173,84.9902509 0.509656191,83.2683844 0.509656191,81.8606128 L0.509656191,15.6796869 L31.4406201,15.6796869 Z" id="Fill-6" fill="#A5CBFA"></path>
                                    <path d="M28.8500461,0.964993492 L1.58481572,14.4040788 C0.150929978,15.1105748 0.150929978,16.2555855 1.58481572,16.9620815 L28.8500461,30.4020369 C30.2829128,31.1085329 32.6074994,31.1085329 34.0393469,30.4020369 L61.3055964,16.9629516 C62.7374439,16.2555855 62.7374439,15.1105748 61.3055964,14.4040788 L34.0393469,0.964993492 C32.6074994,0.25849749 30.2818936,0.25849749 28.8500461,0.964993492" id="Fill-8" fill="#DCEEFF"></path>
                                    <path d="M35.5030925,35.399017 L35.5030925,91.9709013 C35.5030925,92.9166662 36.2816915,93.3003666 37.2304815,92.8322695 L37.5300995,92.6782673 L58.1160924,82.5236924 C58.5950734,82.2922541 59.0251372,81.8841917 59.3451373,81.4152245 L57.446538,80.323288 L36.0228379,33.9407814 C35.7028378,34.4019179 35.5030925,34.9213491 35.5030925,35.399017" id="Fill-10" fill="#031F60"></path>
                                    <path d="M59.8442967,23.6836253 L59.8341056,23.3938924 C59.8442967,22.455958 59.0646786,22.0713875 58.1067166,22.5412248 L57.9467165,22.6169208 L37.2404688,32.8324005 C36.7614878,33.0707994 36.3324431,33.4719012 36.0226341,33.9408684 L57.35971,80.4477949 L59.3449335,81.4153115 C59.6537233,80.954175 59.8544877,80.4347438 59.8442967,79.9736073 L59.8442967,23.6836253 Z" id="Fill-12" fill="#1E3779"></path>
                                    <path d="M57.9562961,78.8735791 C57.9664872,79.3425462 57.7657228,79.8541468 57.4467419,80.323114 C57.1369329,80.7833805 56.7078881,81.1931829 56.2289071,81.4315818 L35.6327231,91.5861568 L35.5032964,91.6548922 L35.5032964,35.398843 C35.5032964,34.9211751 35.7030416,34.4017439 36.0230417,33.9406074 C36.3318316,33.4716402 36.7608763,33.0705384 37.2408764,32.8321395 L57.946105,22.6175298 L57.9562961,78.8735791 Z" id="Fill-14" fill="#344593"></path>
                                    <path d="M27.3780457,35.399017 L27.3780457,91.9709013 C27.3780457,92.9166662 26.5994468,93.3003666 25.6516758,92.8322695 L25.3510388,92.6782673 L4.766065,82.5236924 C4.28606487,82.2922541 3.85702016,81.8841917 3.53702008,81.4152245 L5.43561932,80.323288 L26.8593195,33.9407814 C27.1793195,34.4019179 27.3780457,34.9213491 27.3780457,35.399017" id="Fill-16" fill="#031F60"></path>
                                    <path d="M3.03796262,23.6836253 L3.0481537,23.3938924 C3.03796262,22.455958 3.81758066,22.0713875 4.77554271,22.5412248 L4.93452364,22.6169208 L25.6407714,32.8324005 C26.1197524,33.0707994 26.5498162,33.4719012 26.8596252,33.9408684 L5.52254928,80.4477949 L3.53732581,81.4153115 C3.22853592,80.954175 3.02777153,80.4347438 3.03796262,79.9736073 L3.03796262,23.6836253 Z" id="Fill-18" fill="#1E3779"></path>
                                    <path d="M4.92586122,78.8735791 C4.91465103,79.3425462 5.11541541,79.8541468 5.4354155,80.323114 C5.7452245,80.7833805 6.17426921,81.1931829 6.65325023,81.4315818 L27.2484151,91.5861568 L27.3778419,91.6548922 L27.3778419,35.398843 C27.3778419,34.9211751 27.1791157,34.4017439 26.8591156,33.9406074 C26.5503257,33.4716402 26.1202619,33.0705384 25.6402618,32.8321395 L4.9350332,22.6175298 L4.92586122,78.8735791 Z" id="Fill-20" fill="#344593"></path>
                                    <path d="M28.8500461,0.964993492 L1.58481572,14.4040788 C0.150929978,15.1105748 0.150929978,16.2555855 1.58481572,16.9620815 L28.8500461,30.4020369 C30.2829128,31.1085329 32.6074994,31.1085329 34.0393469,30.4020369 L61.3055964,16.9629516 C62.7374439,16.2555855 62.7374439,15.1105748 61.3055964,14.4040788 L34.0393469,0.964993492 C32.6074994,0.25849749 30.2818936,0.25849749 28.8500461,0.964993492" id="Fill-22" fill="#DCEEFF"></path>
                                    <path d="M28.8500461,0.964993492 L1.58481572,14.4040788 C0.150929978,15.1105748 0.150929978,16.2555855 1.58481572,16.9620815 L28.8500461,30.4020369 C30.2829128,31.1085329 32.6074994,31.1085329 34.0393469,30.4020369 L61.3055964,16.9629516 C62.7374439,16.2555855 62.7374439,15.1105748 61.3055964,14.4040788 L34.0393469,0.964993492 C32.6074994,0.25849749 30.2818936,0.25849749 28.8500461,0.964993492 Z" id="Stroke-24" stroke="#FFFFFF"></path>
                                    <path d="M19.1038014,49.2028352 L20.5713177,48.4754575 C20.8688974,48.3292859 21.1134835,47.9699474 21.1134835,47.6776043 L21.1134835,41.2704164 C21.1134835,40.9189085 20.9687701,40.5291176 20.7353942,40.1845703 L14.2997237,43.3611921 L19.1038014,49.2028352 Z" id="Fill-26" fill="#C8E2FF"></path>
                                    <path d="M19.8223749,39.3619201 L10.191799,34.6156939 C9.95230846,34.4982346 9.56300899,34.4982346 9.32453759,34.6156939 L7.75001486,35.3978859 L14.2998256,43.3616271 L20.7354961,40.1841353 C20.5011012,39.8387179 20.1790629,39.536804 19.8223749,39.3619201" id="Fill-28" fill="#A5CBFA"></path>
                                    <path d="M8.67190046,35.4712327 L18.1995464,40.1669949 C18.9108842,40.5185028 19.4887187,41.3729105 19.4887187,42.0759262 L19.4887187,48.4831141 C19.4887187,49.1861298 18.9108842,49.4706424 18.1995464,49.1200046 L8.67190046,44.4233723 C7.95852447,44.0727345 7.38068992,43.2174567 7.38068992,42.5153111 L7.38068992,36.1072531 C7.38068992,35.4051075 7.95954358,35.1205949 8.67190046,35.4712327" id="Fill-30" fill="#DCEEFF"></path>
                                    <path d="M41.3968012,45.9646995 L39.7285204,45.1424843 C39.4309407,44.9963127 39.1883929,44.6369742 39.1883929,44.343761 L39.1883929,41.9014774 C39.1883929,41.5508396 39.3331063,41.1610487 39.5654631,40.8165014 L44.5325982,43.2518244 L41.3968012,45.9646995 Z" id="Fill-32" fill="#C8E2FF"></path>
                                    <path d="M40.4781767,39.9931551 L52.6483711,33.9844588 C52.8878616,33.8669995 53.2781802,33.8669995 53.5156325,33.9844588 L55.2899005,34.8632285 L44.5332097,43.2515634 L39.5650554,40.8162404 C39.7994504,40.470823 40.1214887,40.1689091 40.4781767,39.9931551" id="Fill-34" fill="#A5CBFA"></path>
                                    <path d="M54.3685244,34.9358793 L42.3022791,40.8949816 C41.5899222,41.2464895 41.0120877,42.1008972 41.0120877,42.8039129 L41.0120877,45.2461965 C41.0120877,45.9483422 41.5899222,46.2328547 42.3022791,45.8822169 L54.3685244,39.9222445 C55.0819004,39.5707367 55.659735,38.717199 55.659735,38.0141833 L55.659735,35.5718997 C55.659735,34.869754 55.0808813,34.5852415 54.3685244,34.9358793" id="Fill-36" fill="#DCEEFF"></path>
                                    <path d="M41.3968012,57.3138791 L39.7285204,56.4907939 C39.4309407,56.3446223 39.1883929,55.9852838 39.1883929,55.6929406 L39.1883929,53.250657 C39.1883929,52.8991492 39.3331063,52.5102283 39.5654631,52.1648109 L44.5325982,54.6010041 L41.3968012,57.3138791 Z" id="Fill-38" fill="#C8E2FF"></path>
                                    <path d="M40.4781767,51.3423348 L52.6483711,45.3327684 C52.8878616,45.2153091 53.2781802,45.2153091 53.5156325,45.3327684 L55.2899005,46.2115381 L44.5332097,54.600743 L39.5650554,52.1645499 C39.7994504,51.8191325 40.1214887,51.5172186 40.4781767,51.3423348" id="Fill-40" fill="#A5CBFA"></path>
                                    <path d="M54.3685244,46.2841888 L42.3022791,52.2441612 C41.5899222,52.594799 41.0120877,53.4492068 41.0120877,54.1522225 L41.0120877,56.5945061 C41.0120877,57.2966517 41.5899222,57.5820344 42.3022791,57.2305265 L54.3685244,51.2705541 C55.0819004,50.9199163 55.659735,50.0655085 55.659735,49.3624928 L55.659735,46.9202092 C55.659735,46.2180636 55.0808813,45.933551 54.3685244,46.2841888" id="Fill-42" fill="#DCEEFF"></path>
                                    <path d="M41.3968012,68.6621016 L39.7285204,67.8398865 C39.4309407,67.6937149 39.1883929,67.3343764 39.1883929,67.0411632 L39.1883929,64.5988796 C39.1883929,64.2482418 39.3331063,63.8584509 39.5654631,63.5130335 L44.5325982,65.9492266 L41.3968012,68.6621016 Z" id="Fill-44" fill="#C8E2FF"></path>
                                    <path d="M40.4781767,62.6906443 L52.6483711,56.681948 C52.8878616,56.5636186 53.2781802,56.5644887 53.5156325,56.681948 L55.2899005,57.5607177 L44.5332097,65.9490526 L39.5650554,63.5128595 C39.7994504,63.1683122 40.1214887,62.8663982 40.4781767,62.6906443" id="Fill-46" fill="#A5CBFA"></path>
                                    <path d="M54.3685244,57.6333684 L42.3022791,63.5924708 C41.5899222,63.9439786 41.0120877,64.7975163 41.0120877,65.5014021 L41.0120877,67.9436857 C41.0120877,68.6458313 41.5899222,68.9303439 42.3022791,68.578836 L54.3685244,62.6197337 C55.0819004,62.2682258 55.659735,61.4146882 55.659735,60.7108024 L55.659735,58.2693888 C55.659735,57.5663731 55.0808813,57.2818606 54.3685244,57.6333684" id="Fill-48" fill="#DCEEFF"></path>
                                    <path d="M41.3968012,80.0104112 L39.7285204,79.188196 C39.4309407,79.0420244 39.1883929,78.6826859 39.1883929,78.3894727 L39.1883929,75.9471891 C39.1883929,75.5965513 39.3331063,75.2067604 39.5654631,74.8622131 L44.5325982,77.2975361 L41.3968012,80.0104112 Z" id="Fill-50" fill="#C8E2FF"></path>
                                    <path d="M40.4781767,74.0388668 L52.6483711,68.0301705 C52.8878616,67.9127112 53.2781802,67.9127112 53.5156325,68.0301705 L55.2899005,68.9089402 L44.5332097,77.2972751 L39.5650554,74.8619521 C39.7994504,74.5165347 40.1214887,74.2146208 40.4781767,74.0388668" id="Fill-52" fill="#A5CBFA"></path>
                                    <path d="M54.3685244,68.981591 L42.3022791,74.9415634 C41.5899222,75.2922012 41.0120877,76.1466089 41.0120877,76.8496246 L41.0120877,79.2919082 C41.0120877,79.9940539 41.5899222,80.2785664 42.3022791,79.9279286 L54.3685244,73.9679562 C55.0819004,73.6173184 55.659735,72.7629107 55.659735,72.059895 L55.659735,69.6176114 C55.659735,68.9154657 55.0808813,68.6309532 54.3685244,68.981591" id="Fill-54" fill="#DCEEFF"></path>
                                    <path d="M42.7204193,42.3043193 L44.3153242,41.517777 C44.4355791,41.4577422 44.5323944,41.5064661 44.5323944,41.6239254 L44.5323944,43.1970101 C44.5323944,43.3144694 44.4355791,43.4580308 44.3153242,43.5171955 L42.7204193,44.3037378 C42.6011836,44.3620324 42.5033492,44.3150487 42.5033492,44.1975894 L42.5033492,42.6236346 C42.5033492,42.5053053 42.6011836,42.362614 42.7204193,42.3043193" id="Fill-56" fill="#41E5C9"></path>
                                    <path d="M42.7204193,53.6526289 L44.3153242,52.8660865 C44.4355791,52.8069218 44.5323944,52.8547756 44.5323944,52.973105 L44.5323944,54.5453196 C44.5323944,54.663649 44.4355791,54.8063403 44.3153242,54.8663751 L42.7204193,55.6520474 C42.6011836,55.7112121 42.5033492,55.6642283 42.5033492,55.545899 L42.5033492,53.9719442 C42.5033492,53.8544849 42.6011836,53.7109235 42.7204193,53.6526289" id="Fill-58" fill="#41E5C9"></path>
                                    <path d="M42.7204193,65.0008514 L44.3153242,64.2143091 C44.4355791,64.1551444 44.5323944,64.2029982 44.5323944,64.3213276 L44.5323944,65.8944123 C44.5323944,66.0118716 44.4355791,66.1554329 44.3153242,66.2145976 L42.7204193,67.00114 C42.6011836,67.0594346 42.5033492,67.0124509 42.5033492,66.8941215 L42.5033492,65.3210368 C42.5033492,65.2027074 42.6011836,65.0600161 42.7204193,65.0008514" id="Fill-60" fill="#41E5C9"></path>
                                    <path d="M42.7204193,76.350031 L44.3153242,75.5634887 C44.4355791,75.504324 44.5323944,75.5521778 44.5323944,75.6696371 L44.5323944,77.2427218 C44.5323944,77.3610512 44.4355791,77.5037425 44.3153242,77.5629072 L42.7204193,78.3494495 C42.6011836,78.4077441 42.5033492,78.3607604 42.5033492,78.2433011 L42.5033492,76.6693463 C42.5033492,76.551017 42.6011836,76.4083257 42.7204193,76.350031" id="Fill-62" fill="#41E5C9"></path>
                                </g>
                            </g>
                        </g>
                    </g>
                </g>
            </g>
        </g>
    </g>
</svg>